REM DIRINDEX 1\5,1\2\6,1\2\7,1\3\8,1\3\9,1\4\10,1\4\11,1\4\12
REM DIRNAME folder01,folder02,folder03,folder04,folder05,folder06,folder07,folder08,folder09,folder10,folder11,folder12
TITLE ""
FILE "EJE_DB3000_5th_2A_47.mp3" MP3
  TRACK 01 AUDIO
    TITLE "0:"
    INDEX 01 00:00:00
  TRACK 02 AUDIO
    TITLE "10:cjc026_08148"
    INDEX 01 00:00:05
  TRACK 03 AUDIO
    TITLE "0:"
    INDEX 01 00:00:72
  TRACK 04 AUDIO
    TITLE "11:cjc026_08149"
    INDEX 01 00:01:24
  TRACK 05 AUDIO
    TITLE "0:"
    INDEX 01 00:02:42
  TRACK 06 AUDIO
    TITLE "12:cjc026_08150"
    INDEX 01 00:02:67
  TRACK 07 AUDIO
    TITLE "0:"
    INDEX 01 00:03:59
  TRACK 08 AUDIO
    TITLE "10:cjc026_08151"
    INDEX 01 00:04:11
  TRACK 09 AUDIO
    TITLE "0:"
    INDEX 01 00:04:68
  TRACK 10 AUDIO
    TITLE "11:cjc026_08152"
    INDEX 01 00:05:26
  TRACK 11 AUDIO
    TITLE "0:"
    INDEX 01 00:06:18
  TRACK 12 AUDIO
    TITLE "12:cjc026_08153"
    INDEX 01 00:06:43
  TRACK 13 AUDIO
    TITLE "0:"
    INDEX 01 00:07:25
  TRACK 14 AUDIO
    TITLE "10:cjc026_08154"
    INDEX 01 00:07:56
  TRACK 15 AUDIO
    TITLE "0:"
    INDEX 01 00:08:48
  TRACK 16 AUDIO
    TITLE "11:cjc026_08155"
    INDEX 01 00:09:00
  TRACK 17 AUDIO
    TITLE "0:"
    INDEX 01 00:09:71
  TRACK 18 AUDIO
    TITLE "12:cjc026_08156"
    INDEX 01 00:10:21
  TRACK 19 AUDIO
    TITLE "0:"
    INDEX 01 00:11:11
  TRACK 20 AUDIO
    TITLE "10:cjc026_08157"
    INDEX 01 00:11:39
  TRACK 21 AUDIO
    TITLE "0:"
    INDEX 01 00:12:28
  TRACK 22 AUDIO
    TITLE "11:cjc026_08158"
    INDEX 01 00:12:56
  TRACK 23 AUDIO
    TITLE "0:"
    INDEX 01 00:13:49
  TRACK 24 AUDIO
    TITLE "12:cjc026_08159"
    INDEX 01 00:14:00
  TRACK 25 AUDIO
    TITLE "0:"
    INDEX 01 00:14:66
  TRACK 26 AUDIO
    TITLE "10:cjc026_08160"
    INDEX 01 00:15:17
  TRACK 27 AUDIO
    TITLE "0:"
    INDEX 01 00:16:00
  TRACK 28 AUDIO
    TITLE "11:cjc026_08161"
    INDEX 01 00:16:28
  TRACK 29 AUDIO
    TITLE "0:"
    INDEX 01 00:17:20
  TRACK 30 AUDIO
    TITLE "12:cjc026_08162"
    INDEX 01 00:17:45
  TRACK 31 AUDIO
    TITLE "0:"
    INDEX 01 00:18:29
  TRACK 32 AUDIO
    TITLE "10:cjc026_08163"
    INDEX 01 00:18:54
  TRACK 33 AUDIO
    TITLE "0:"
    INDEX 01 00:19:42
  TRACK 34 AUDIO
    TITLE "11:cjc026_08164"
    INDEX 01 00:19:67
  TRACK 35 AUDIO
    TITLE "0:"
    INDEX 01 00:21:06
  TRACK 36 AUDIO
    TITLE "12:cjc026_08165"
    INDEX 01 00:21:31
  TRACK 37 AUDIO
    TITLE "0:"
    INDEX 01 00:22:19
  TRACK 38 AUDIO
    TITLE "10:cjc026_08166"
    INDEX 01 00:22:44
  TRACK 39 AUDIO
    TITLE "0:"
    INDEX 01 00:23:42
  TRACK 40 AUDIO
    TITLE "11:cjc026_08167"
    INDEX 01 00:23:67
  TRACK 41 AUDIO
    TITLE "0:"
    INDEX 01 00:24:69
  TRACK 42 AUDIO
    TITLE "12:cjc026_08168"
    INDEX 01 00:25:19
  TRACK 43 AUDIO
    TITLE "0:"
    INDEX 01 00:26:18
  TRACK 44 AUDIO
    TITLE "10:cjc026_08169"
    INDEX 01 00:26:44
  TRACK 45 AUDIO
    TITLE "0:"
    INDEX 01 00:27:24
  TRACK 46 AUDIO
    TITLE "11:cjc026_08170"
    INDEX 01 00:27:55
  TRACK 47 AUDIO
    TITLE "0:"
    INDEX 01 00:28:47
  TRACK 48 AUDIO
    TITLE "12:cjc026_08171"
    INDEX 01 00:28:74
  TRACK 49 AUDIO
    TITLE "0:"
    INDEX 01 00:29:54
  TRACK 50 AUDIO
    TITLE "10:cjc026_08172"
    INDEX 01 00:30:10
  TRACK 51 AUDIO
    TITLE "0:"
    INDEX 01 00:31:06
  TRACK 52 AUDIO
    TITLE "11:cjc026_08173"
    INDEX 01 00:31:31
  TRACK 53 AUDIO
    TITLE "0:"
    INDEX 01 00:32:23
  TRACK 54 AUDIO
    TITLE "12:cjc026_08174"
    INDEX 01 00:32:48
  TRACK 55 AUDIO
    TITLE "0:"
    INDEX 01 00:33:46
  TRACK 56 AUDIO
    TITLE "10:cjc026_08175"
    INDEX 01 00:33:71
  TRACK 57 AUDIO
    TITLE "0:"
    INDEX 01 00:34:61
  TRACK 58 AUDIO
    TITLE "11:cjc026_08176"
    INDEX 01 00:35:14
  TRACK 59 AUDIO
    TITLE "0:"
    INDEX 01 00:35:72
  TRACK 60 AUDIO
    TITLE "12:cjc026_08177"
    INDEX 01 00:36:23
  TRACK 61 AUDIO
    TITLE "0:"
    INDEX 01 00:37:14
  TRACK 62 AUDIO
    TITLE "10:cjc026_08178"
    INDEX 01 00:37:40
  TRACK 63 AUDIO
    TITLE "0:"
    INDEX 01 00:38:41
  TRACK 64 AUDIO
    TITLE "11:cjc026_08179"
    INDEX 01 00:38:69
  TRACK 65 AUDIO
    TITLE "0:"
    INDEX 01 00:39:62
  TRACK 66 AUDIO
    TITLE "12:cjc026_08180"
    INDEX 01 00:40:15
  TRACK 67 AUDIO
    TITLE "0:"
    INDEX 01 00:41:16
